Coordinates
version=1
nRows=8
nColumns=42
inDegrees=yes

Units are S.I. units (second, meters, Newtons, ...)
If the header above contains a line with 'inDegrees', this indicates whether rotational values are in degrees (yes) or radians (no).

endheader
time	pelvis_tilt	pelvis_list	pelvis_rotation	pelvis_tx	pelvis_ty	pelvis_tz	hip_flexion_r	hip_adduction_r	hip_rotation_r	knee_angle_r	knee_angle_r_beta	ankle_angle_r	subtalar_angle_r	mtp_angle_r	hip_flexion_l	hip_adduction_l	hip_rotation_l	knee_angle_l	knee_angle_l_beta	ankle_angle_l	subtalar_angle_l	mtp_angle_l	lumbar_extension	lumbar_bending	lumbar_rotation	sh_tx_r	sh_ty_r	sh_tz_r	sh_plane_elev_r	sh_elev_r	sh_axial_rot_r	elbow_flex_r	pro_sup_r	sh_tx_l	sh_ty_l	sh_tz_l	sh_plane_elev_l	sh_elev_l	sh_axial_rot_l	elbow_flex_l	pro_sup_l
      0.00000000	     -5.29401743	     -0.97415466	     -2.61686162	      0.28316855	      0.95657338	     -0.01932944	      3.97373341	     -5.07675900	     -4.67737524	      6.48126340	      0.11311939	     -6.49938162	    -18.00218454	     -6.03869486	      3.68262491	     -7.57318823	     -7.67616116	      6.48096548	      0.11311419	      9.64896216	     -5.84377666	     -6.03869486	      1.59613013	      1.91537230	     -4.95298282	      0.00662370	     -0.01780695	     -0.00526487	      9.20326195	      6.30091562	      0.62335675	     27.26366357	     77.03221722	      0.00632733	     -0.01812722	     -0.00550873	      4.89130269	      5.55722564	     -3.21579064	     30.12485618	     74.47596776
      0.01666670	     -7.19324797	     -0.60728040	     -2.64677023	      0.28513970	      0.95378837	     -0.02033195	      5.97822598	     -5.51528076	     -5.06250540	      6.13323424	      0.10704513	     -2.68759120	    -14.70138990	     -6.64316748	      5.87662757	     -7.09669764	     -8.26837445	      5.41519665	      0.09451301	     10.09549374	     -3.76532927	     -6.64316748	      4.42250538	      1.90327103	     -5.61854962	      0.00592097	     -0.01767224	     -0.00549980	      3.34388259	      5.59166795	      1.52322643	     27.48811933	     80.31738830	      0.00457984	     -0.01786810	     -0.00539521	     -6.71109188	      3.41166582	     -1.29140373	     31.00818989	     79.75087897
      0.03333330	     -7.64602059	     -0.00921960	     -2.55118604	      0.28095731	      0.95261254	     -0.02434971	      6.28928257	     -6.42030759	     -5.95674596	      5.30812599	      0.09264428	     -2.64056977	    -14.29699078	     -6.65666103	      6.27327837	     -6.37003295	     -8.71815146	      4.87949391	      0.08516323	      9.53852220	     -3.07925775	     -6.65666103	      5.07189231	      1.24599798	     -6.07802221	      0.00722759	     -0.01774383	     -0.00529244	      2.92788747	      5.66012733	      0.95811809	     27.87027647	     80.19417787	      0.00492732	     -0.01792563	     -0.00514458	     -6.89292605	      3.71489807	     -1.50285593	     31.34885520	     79.70709801
      0.05000000	     -7.07714129	      0.40757205	     -2.24927965	      0.28528480	      0.95643254	     -0.02970272	      5.19603507	     -7.29924609	     -6.62343494	      4.41471142	      0.07705125	     -1.97276407	    -12.76206780	     -6.79390744	      5.05032836	     -5.58803984	     -8.64114215	      3.69045941	      0.06441067	      9.01354345	     -2.80074655	     -6.79390744	      4.66470688	      0.76971225	     -6.71217055	      0.00896220	     -0.01800090	     -0.00506314	      3.58358723	      5.78164892	      0.91568117	     27.75219879	     78.59213391	      0.00493612	     -0.01806005	     -0.00485563	     -5.62110907	      4.10018535	     -1.78167147	     31.04569750	     78.03072403
      0.06666670	     -6.63396806	      0.56495383	     -2.20621116	      0.28503807	      0.95926941	     -0.02946995	      4.36334129	     -7.61541730	     -7.03623851	      3.69485023	      0.06448730	     -1.50372346	    -11.73524801	     -6.76523124	      4.06919655	     -5.19896793	     -8.40155612	      2.72074073	      0.04748588	      8.56420357	     -2.89090037	     -6.76523124	      4.13381904	      0.59277894	     -7.11544116	      0.01026673	     -0.01811424	     -0.00494325	      4.45429967	      5.85427966	      0.83194372	     27.96643472	     78.62063963	      0.00462049	     -0.01814523	     -0.00466053	     -4.84024620	      4.21445634	     -2.85098307	     31.38354710	     77.53791270
      0.08333330	     -6.24986260	      0.56584020	     -2.14453309	      0.28486946	      0.95971293	     -0.02963403	      3.68948272	     -7.59057990	     -7.32105532	      3.12528951	      0.05454659	     -1.21225280	    -11.12193003	     -6.80760536	      3.39688772	     -5.04157363	     -8.05800452	      2.20555900	      0.03849427	      8.21452318	     -2.83633627	     -6.80760536	      3.87170392	      0.47662073	     -7.32645031	      0.01229620	     -0.01817146	     -0.00471875	      5.97638592	      6.07779230	      1.28342687	     27.76609991	     77.60688250	      0.00700520	     -0.01816841	     -0.00439063	     -3.35025551	      4.68256185	     -3.39017000	     31.67236935	     76.02908425
      0.10000000	     -6.23263810	      0.63338118	     -2.11586094	      0.28034080	      0.95911664	     -0.03371453	      3.75385092	     -7.77030274	     -7.39188229	      2.93256278	      0.05118288	     -0.97770058	    -11.21531500	     -6.81141854	      3.37255998	     -4.80789168	     -7.85227194	      1.95820866	      0.03417719	      7.94572245	     -2.78653091	     -6.81141854	      3.98191673	      0.35654262	     -7.52071221	      0.01453721	     -0.01813900	     -0.00457134	      6.05740431	      6.11217991	      1.38651599	     27.80652956	     77.61202190	      0.01123442	     -0.01815879	     -0.00423362	     -3.34827189	      4.96025384	     -3.33536110	     32.20855678	     75.97875619
      0.11666670	     -5.82922773	      0.62054098	     -1.94284576	      0.28016947	      0.96267171	     -0.03419019	      3.25159657	     -7.80543673	     -7.73018831	      2.66146228	      0.04645128	     -0.89551539	    -10.76286186	     -6.88089299	      2.99181163	     -4.65271401	     -7.27478386	      1.84241091	      0.03215614	      7.37891997	     -3.40863178	     -6.88089299	      3.40318383	      0.30499438	     -8.45027530	      0.01884063	     -0.01808997	     -0.00449866	      7.75353437	      6.29575507	      1.97128315	     28.12736951	     76.34923879	      0.01260858	     -0.01813917	     -0.00406725	     -2.61247542	      5.61881300	     -4.32334511	     33.56522938	     73.92323641
